{
  "accessors": [
    {
      "bufferView": 2,
      "componentType": 5126,
      "count": 31683,
      "max": [
        0.191756010055542,
        0.13545529544353485,
        0.22777150571346283
      ],
      "min": [
        -0.1917559802532196,
        -0.25301215052604675,
        -0.0014234501868486404
      ],
      "type": "VEC3"
    },
    {
      "bufferView": 2,
      "byteOffset": 380196,
      "componentType": 5126,
      "count": 31683,
      "max": [
        0.9999973177909851,
        0.9993584752082825,
        0.9999825954437256
      ],
      "min": [
        -0.9999973177909851,
        -0.99990314245224,
        -1.0
      ],
      "type": "VEC3"
    },
    {
      "bufferView": 3,
      "componentType": 5126,
      "count": 31683,
      "max": [
        1.0,
        0.9999606609344482,
        0.9999849200248718,
        1.0
      ],
      "min": [
        -0.999873697757721,
        -0.9999376535415649,
        -0.9999312162399292,
        -1.0
      ],
      "type": "VEC4"
    },
    {
      "bufferView": 1,
      "componentType": 5126,
      "count": 31683,
      "max": [
        0.9980400204658508,
        0.7389500141143799
      ],
      "min": [
        0.0019499999471008778,
        0.0019499999471008778
      ],
      "type": "VEC2"
    },
    {
      "bufferView": 1,
      "byteOffset": 253464,
      "componentType": 5126,
      "count": 31683,
      "max": [
        0.9980400204658508,
        0.7389500141143799
      ],
      "min": [
        0.0019499999471008778,
        0.0019499999471008778
      ],
      "type": "VEC2"
    },
    {
      "bufferView": 0,
      "componentType": 5125,
      "count": 181620,
      "type": "SCALAR"
    },
    {
      "bufferView": 2,
      "byteOffset": 760392,
      "componentType": 5126,
      "count": 1118,
      "max": [
        0.06283170729875565,
        -0.1381320208311081,
        0.2225811630487442
      ],
      "min": [
        -0.06283170729875565,
        -0.19620369374752045,
        0.1645146906375885
      ],
      "type": "VEC3"
    },
    {
      "bufferView": 2,
      "byteOffset": 773808,
      "componentType": 5126,
      "count": 1118,
      "max": [
        0.9999257326126099,
        0.9996711611747742,
        0.9999849796295166
      ],
      "min": [
        -0.9999257326126099,
        -0.99969083070755,
        -0.9996052980422974
      ],
      "type": "VEC3"
    },
    {
      "bufferView": 1,
      "byteOffset": 506928,
      "componentType": 5126,
      "count": 1118,
      "max": [
        0.9998999834060669,
        0.7616099715232849
      ],
      "min": [
        9.999999747378752e-05,
        0.2618100047111511
      ],
      "type": "VEC2"
    },
    {
      "bufferView": 0,
      "byteOffset": 726480,
      "componentType": 5125,
      "count": 5760,
      "type": "SCALAR"
    }
  ],
  "asset": {
    "extras": {
      "author": "Jorge.Franco.Pena (https://sketchfab.com/Jorge.Franco.Pena)",
      "license": "CC-BY-4.0 (http://creativecommons.org/licenses/by/4.0/)",
      "source": "https://sketchfab.com/3d-models/frog-28aa10fe530e4bcebf3ebd530afdcb5c",
      "title": "Frog"
    },
    "generator": "Sketchfab-15.15.0",
    "version": "2.0"
  },
  "bufferViews": [
    {
      "buffer": 0,
      "byteLength": 749520,
      "name": "floatBufferViews",
      "target": 34963
    },
    {
      "buffer": 0,
      "byteLength": 515872,
      "byteOffset": 749520,
      "byteStride": 8,
      "name": "floatBufferViews",
      "target": 34962
    },
    {
      "buffer": 0,
      "byteLength": 787224,
      "byteOffset": 1265392,
      "byteStride": 12,
      "name": "floatBufferViews",
      "target": 34962
    },
    {
      "buffer": 0,
      "byteLength": 506928,
      "byteOffset": 2052616,
      "byteStride": 16,
      "name": "floatBufferViews",
      "target": 34962
    }
  ],
  "buffers": [
    {
      "byteLength": 2559544,
      "uri": "scene.bin"
    }
  ],
  "images": [
    {
      "uri": "textures/Frog_baseColor.png"
    },
    {
      "uri": "textures/Frog_metallicRoughness.png"
    },
    {
      "uri": "textures/Frog_normal.png"
    },
    {
      "uri": "textures/Eyes_baseColor.png"
    },
    {
      "uri": "textures/Eyes_metallicRoughness.png"
    }
  ],
  "materials": [
    {
      "doubleSided": true,
      "name": "Frog",
      "normalTexture": {
        "index": 2
      },
      "occlusionTexture": {
        "index": 1
      },
      "pbrMetallicRoughness": {
        "baseColorTexture": {
          "index": 0
        },
        "metallicFactor": 0.0,
        "metallicRoughnessTexture": {
          "index": 1
        }
      }
    },
    {
      "doubleSided": true,
      "name": "Eyes",
      "occlusionTexture": {
        "index": 4
      },
      "pbrMetallicRoughness": {
        "baseColorTexture": {
          "index": 3
        },
        "metallicFactor": 0.0,
        "metallicRoughnessTexture": {
          "index": 4
        }
      }
    }
  ],
  "meshes": [
    {
      "name": "Frog.001_Frog_0",
      "primitives": [
        {
          "attributes": {
            "NORMAL": 1,
            "POSITION": 0,
            "TANGENT": 2,
            "TEXCOORD_0": 3,
            "TEXCOORD_1": 4
          },
          "indices": 5,
          "material": 0,
          "mode": 4
        }
      ]
    },
    {
      "name": "Frog.001_Eyes_0",
      "primitives": [
        {
          "attributes": {
            "NORMAL": 7,
            "POSITION": 6,
            "TEXCOORD_0": 8
          },
          "indices": 9,
          "material": 1,
          "mode": 4
        }
      ]
    }
  ],
  "nodes": [
    {
      "children": [
        1
      ],
      "matrix": [
        1.0,
        0.0,
        0.0,
        0.0,
        0.0,
        2.220446049250313e-16,
        -1.0,
        0.0,
        0.0,
        1.0,
        2.220446049250313e-16,
        0.0,
        0.0,
        0.0,
        0.0,
        1.0
      ],
      "name": "Sketchfab_model"
    },
    {
      "children": [
        2
      ],
      "matrix": [
        0.009999999776482582,
        0.0,
        0.0,
        0.0,
        0.0,
        0.0,
        0.009999999776482582,
        0.0,
        0.0,
        -0.009999999776482582,
        0.0,
        0.0,
        0.0,
        0.0,
        0.0,
        1.0
      ],
      "name": "988860c0b0234466bc2852d8fe887528.fbx"
    },
    {
      "children": [
        3
      ],
      "name": "RootNode"
    },
    {
      "children": [
        4,
        5
      ],
      "matrix": [
        100.0,
        0.0,
        0.0,
        0.0,
        0.0,
        -1.629206793918314e-05,
        -99.99999999999868,
        0.0,
        0.0,
        99.99999999999868,
        -1.629206793918314e-05,
        0.0,
        0.0,
        0.0,
        0.0,
        1.0
      ],
      "name": "Frog.001"
    },
    {
      "mesh": 0,
      "name": "Frog.001_Frog_0"
    },
    {
      "mesh": 1,
      "name": "Frog.001_Eyes_0"
    }
  ],
  "samplers": [
    {
      "magFilter": 9729,
      "minFilter": 9987,
      "wrapS": 10497,
      "wrapT": 10497
    }
  ],
  "scene": 0,
  "scenes": [
    {
      "name": "Sketchfab_Scene",
      "nodes": [
        0
      ]
    }
  ],
  "textures": [
    {
      "sampler": 0,
      "source": 0
    },
    {
      "sampler": 0,
      "source": 1
    },
    {
      "sampler": 0,
      "source": 2
    },
    {
      "sampler": 0,
      "source": 3
    },
    {
      "sampler": 0,
      "source": 4
    }
  ]
}
